<?xml version="1.0" standalone="no"?><!DOCTYPE svg PUBLIC "-//W3C//DTD SVG 1.1//EN" "http://www.w3.org/Graphics/SVG/1.1/DTD/svg11.dtd"><svg t="1738927354475" class="icon" viewBox="0 0 1024 1024" version="1.1" xmlns="http://www.w3.org/2000/svg" p-id="42284" xmlns:xlink="http://www.w3.org/1999/xlink" width="200" height="200"><path d="M512.010983 0c-673.059894 11.598421-672.88416 1012.577313 0 1024C1184.71941 1012.577313 1184.71941 11.422687 512.010983 0z m0 971.279904a468.330187 468.330187 0 0 1-269.223957-83.122018c37.958469-25.832847 118.093015-155.524284 104.38579-225.114811a223.884675 223.884675 0 0 1 33.916595-128.109833c36.904067 48.151021 70.293461 87.866827 84.527888 102.276986 0 8.786683-9.313884 33.916595-11.246954 52.720096l-85.582289 93.31457L657.518449 948.96173a514.723872 514.723872 0 0 1-145.507466 22.318174z m-193.307019-377.124421c-6.853612 84.527887-11.07122 182.060065-75.389737 241.985241a333.893942 333.893942 0 0 1 75.389737-241.985241z m385.559636 136.720783v1.230135l19.330702 116.159945-28.820319-19.506435c-65.021452-55.883302-147.089068-121.431955-202.796636-141.992792 27.41445-87.866827-21.615239-81.188948-100.343916-195.24009 33.565128-10.016818 80.31028-7.20508 150.955208 56.586237C616.22104 523.686288 341.197872 352.697443 673.685945 338.814484a432.656255 432.656255 0 0 1 149.725073 250.244723c-8.610949 2.284537-133.381843-6.326412-135.314914 6.150678a17.573365 17.573365 0 0 0-4.041874 14.234426zM480.027458 462.530976a162.905097 162.905097 0 0 0-108.779131-0.878668c-104.38579-158.160288-142.344259-259.73434 52.720096-228.45375a550.573537 550.573537 0 0 1 203.851038 73.808135c-116.86288 10.368286-179.951261 53.598764-147.792003 155.524283z m210.880385 465.518449l-266.236486-152.888279L473.701047 720.50798l199.281963 135.314913C692.665179 872.517591 710.238545 888.157886 727.81191 902.919513zM771.042389 896.241634l-6.150678-5.27201a15.816029 15.816029 0 0 0 0-7.029346l-17.573365-109.482066a307.006693 307.006693 0 0 1 61.858246 92.963103A382.39643 382.39643 0 0 1 771.042389 896.241634z m65.197185-54.125966a429.317316 429.317316 0 0 0-99.11378-126.879698l-14.937361-89.97563c15.464562-7.029346 146.034666 17.573365 139.00532-19.330702 0-3.338939-36.201133-341.099022-431.250386-406.999142-231.089755-34.61953-217.38253 101.749785-79.783079 294.35387l9.13815 12.652823C300.076197 544.774326 157.029003 723.143985 220.820319 871.463189-67.031406 635.101424 29.973571 61.331045 512.010983 52.720096 973.839025 61.155311 1082.618157 589.762142 836.239574 841.237z" fill="#515151" p-id="42285"></path></svg>